<svg xmlns="http://www.w3.org/2000/svg" xmlns:svg="http://www.w3.org/2000/svg" id="svg3492" width="256" height="256" version="1.1" viewBox="0 0 256 256" xml:space="preserve"><title id="title3357">OpenDHT</title><metadata id="metadata3498"/><defs id="defs3496"><clipPath id="clipPath3534" clipPathUnits="userSpaceOnUse"><path id="path3536" d="m 0,0 1152,0 0,648 L 0,648 0,0 Z"/></clipPath></defs><g id="g3500" transform="matrix(1.25,0,0,-1.25,-589.00821,604.10631)"><g id="g3530"><g id="g3532" clip-path="url(#clipPath3534)"><g id="g3359" transform="matrix(0.9931555,0,0,0.99058777,1.5489503,0.9813209)"><g id="g3538" transform="translate(485.3798,383.7826)"><path id="path3540" fill="#47b3d1" fill-opacity="1" fill-rule="nonzero" stroke="none" d="m 0,0 c 0,50.03 40.554,90.586 90.586,90.586 50.028,0 90.587,-40.556 90.587,-90.586 0,-50.03 -40.559,-90.588 -90.587,-90.588 C 40.554,-90.588 0,-50.03 0,0"/></g><g id="g3542" transform="translate(576.0338,313.2273)"><path id="path3544" fill="#0091ba" fill-opacity="1" fill-rule="nonzero" stroke="none" d="m 0,0 c 0,54.307 -24.009,102.977 -61.954,136.075 -17.613,-16.526 -28.632,-39.996 -28.632,-66.056 0,-49.629 39.916,-89.912 89.393,-90.555 0.396,-0.009 0.792,-0.033 1.193,-0.033 L 0,-0.082 0,0 Z"/></g><g id="g3546" transform="translate(575.9661,292.6626)"><path id="path3548" fill="#007aa3" fill-opacity="1" fill-rule="nonzero" stroke="none" d="m 0,0 c -1.439,49.482 -41.105,89.355 -90.504,91.12 0,-0.178 -0.015,-0.355 -0.015,-0.536 C -90.519,40.578 -49.998,0.039 0,0"/></g><g id="g3550" transform="translate(532.4411,337.497)"><path id="path3552" fill="#006382" fill-opacity="1" fill-rule="nonzero" stroke="none" d="m 0,0 c -10.555,0 -20.236,-3.754 -27.777,-10 16.565,-21.182 42.472,-34.815 71.442,-34.834 0.01,0.415 -0.072,0.821 -0.072,1.241 C 43.593,-19.516 24.077,0 0,0"/></g><g id="g3554" transform="translate(576.0338,313.2273)"><path id="path3556" fill="#0091ba" fill-opacity="1" fill-rule="nonzero" stroke="none" d="M 0,0 C 0,54.307 24.014,102.977 61.954,136.075 79.567,119.549 90.586,96.079 90.586,70.019 90.586,20.39 50.675,-19.893 1.198,-20.536 0.797,-20.545 0.406,-20.569 0.005,-20.569 l 0,20.487 C 0.005,-0.053 0,-0.029 0,0"/></g><g id="g3558" transform="translate(576.1063,292.6626)"><path id="path3560" fill="#007aa3" fill-opacity="1" fill-rule="nonzero" stroke="none" d="m 0,0 c 1.44,49.482 41.105,89.355 90.504,91.12 0,-0.178 0.01,-0.355 0.01,-0.536 C 90.514,40.578 49.998,0.039 0,0"/></g><g id="g3562" transform="translate(619.6266,337.497)"><path id="path3564" fill="#006382" fill-opacity="1" fill-rule="nonzero" stroke="none" d="m 0,0 c 10.56,0 20.241,-3.754 27.782,-10 -16.57,-21.182 -42.405,-34.815 -71.375,-34.834 -0.009,0.415 0,0.821 0,1.241 C -43.593,-19.516 -24.072,0 0,0"/></g></g></g></g></g></svg>